PathFileType	4	(X/Y/Z)	C:\Users\Basilio\Documents\Thesis Gigler\squatting_fais\c3dfiles\054\SLS_back_pre3\markers_experimental.trc
DataRate	CameraRate	NumFrames	NumMarkers	Units	OrigDataRate	OrigDataStartFrame	OrigNumFrames
200.000000	200.000000	4	61	mm	200.000000	184	1472
Frame#	Time	FHD			LBHD			RBHD			C7			T10			CLAV			LSHO			LUUPA			LMUPA			LDUPA			LLEP			LMEP			LRAD			LUL			LRFIN			RSHO			RUPA1			RMUPA			RDUPA			RLEP			RMEP			RRAD			RUL			RUFIN			LASI			RASI			USACR			LSACR			RSACR			LTHI1			LTHI2			LTHI3			LTHI4			LLFC			LMFC			LTIB1			LTIB2			LTIB3			LTIB4			LLMAL			LMMAL			LHEE			LMT1			LMT2			LMT5			RTHI			RTHI2			RTHI3			RTHI4			RLFC			RMFC			RTIB1			RTIB2			RTIB3			RTIB4			RLMAL			RMMAL			RHEE			RMT1			RMT2			RMT5			
		X1	Y1	Z1	X2	Y2	Z2	X3	Y3	Z3	X4	Y4	Z4	X5	Y5	Z5	X6	Y6	Z6	X7	Y7	Z7	X8	Y8	Z8	X9	Y9	Z9	X10	Y10	Z10	X11	Y11	Z11	X12	Y12	Z12	X13	Y13	Z13	X14	Y14	Z14	X15	Y15	Z15	X16	Y16	Z16	X17	Y17	Z17	X18	Y18	Z18	X19	Y19	Z19	X20	Y20	Z20	X21	Y21	Z21	X22	Y22	Z22	X23	Y23	Z23	X24	Y24	Z24	X25	Y25	Z25	X26	Y26	Z26	X27	Y27	Z27	X28	Y28	Z28	X29	Y29	Z29	X30	Y30	Z30	X31	Y31	Z31	X32	Y32	Z32	X33	Y33	Z33	X34	Y34	Z34	X35	Y35	Z35	X36	Y36	Z36	X37	Y37	Z37	X38	Y38	Z38	X39	Y39	Z39	X40	Y40	Z40	X41	Y41	Z41	X42	Y42	Z42	X43	Y43	Z43	X44	Y44	Z44	X45	Y45	Z45	X46	Y46	Z46	X47	Y47	Z47	X48	Y48	Z48	X49	Y49	Z49	X50	Y50	Z50	X51	Y51	Z51	X52	Y52	Z52	X53	Y53	Z53	X54	Y54	Z54	X55	Y55	Z55	X56	Y56	Z56	X57	Y57	Z57	X58	Y58	Z58	X59	Y59	Z59	X60	Y60	Z60	X61	Y61	Z61	

185	0.92	-230.4057159423829	1800.448608398438	-967.4797363281252	-381.6793518066407	1724.762329101563	-1039.564086914063	-398.1098022460939	1718.017822265625	-900.3040771484377	-407.0301818847657	1551.414428710938	-954.5748291015627	-400.8736877441407	1221.554931640625	-954.149597167969	-258.8498229980469	1510.122924804688	-968.652282714844	-347.6944885253907	1542.038452148438	-1119.9013671875	-197.3086547851563	1411.63623046875	-1237.721435546875	-163.6335601806641	1446.627685546875	-1226.81396484375	-127.9486465454102	1401.54443359375	-1245.483032226563	-69.64021301269533	1404.93798828125	-1241.542846679688	-67.18415832519533	1349.216186523438	-1186.762451171875	182.9560852050782	1454.290405273438	-1170.7265625	202.3499603271485	1408.705200195313	-1231.992431640625	272.3660278320313	1477.231079101563	-1193.874877929688	-320.5442199707032	1548.39453125	-810.2646484375002	-161.9715423583985	1424.227416992188	-690.4024658203126	-126.5438690185547	1455.24755859375	-699.1245727539064	-93.79530334472658	1406.759033203125	-680.7958984375001	-48.82393646240236	1400.40087890625	-685.3937377929689	-52.94445800781251	1350.067260742188	-742.4946289062501	207.5873260498047	1473.688232421875	-787.6656494140627	215.5776519775391	1429.921875	-720.2686157226564	282.7615661621094	1504.133422851563	-771.0465087890627	-203.4534912109376	1062.765991210938	-1081.578979492188	-201.4829864501954	1063.604248046875	-826.2406005859377	-394.6803283691407	1137.935546875	-951.9924316406252	-399.0684814453126	1106.004028320313	-980.198669433594	-397.0360717773439	1104.775756835938	-923.4414062500002	-303.6143493652344	823.617858886719	-1160.352416992188	-276.8645935058594	743.0339355468751	-1155.460693359375	-229.7139892578126	743.9747924804689	-1149.8369140625	-309.0227355957032	692.6362304687501	-1138.956909179688	-320.8868103027344	537.9062500000001	-1116.107299804688	-287.6165161132813	531.6021118164064	-980.423034667969	-281.0292663574219	373.1743774414063	-1066.651489257813	-333.0404968261719	327.6260070800782	-1124.394897460938	-294.0528259277344	325.1443786621094	-1098.583251953125	-299.5840148925782	247.6899414062501	-1064.218505859375	-359.9048156738282	111.4522094726563	-1100.59716796875	-328.4347839355469	132.1124725341797	-1010.697265625	-428.7456970214845	101.6927566528321	-1042.845092773438	-216.3587341308594	57.56175231933595	-1020.803100585938	-208.7459106445313	54.6526565551758	-1070.111206054688	-260.8554992675782	38.12936401367188	-1121.689453125	-302.3277587890626	765.9727172851564	-735.3471679687501	-268.4841003417969	708.8692016601564	-727.7443237304689	-234.6843261718751	707.5139160156251	-731.1975097656251	-299.8854980468751	632.5786132812501	-742.0508422851564	-314.0643615722657	542.9924316406251	-737.4857177734376	-256.1357727050782	527.9230957031251	-861.8536376953127	-265.6816406250001	431.6625976562501	-730.1444091796876	-343.3638305664063	368.2787475585938	-693.3212890625001	-298.1428527832032	356.8935852050782	-698.9088134765626	-286.3430786132813	303.1723632812501	-716.6557006835939	-357.0264587402344	130.1833648681641	-679.3245849609376	-315.4906311035157	137.7447814941407	-765.4439086914064	-419.8995361328126	104.5166473388672	-736.1253662109376	-202.2930755615235	52.26617813110353	-741.8714599609376	-201.3825073242188	53.28527832031251	-694.1004028320314	-252.8070373535157	41.77396774291993	-647.0955810546876	
186	0.925	-230.6425018310547	1800.419311523438	-967.9173583984377	-381.8838195800782	1724.751831054688	-1040.0126953125	-398.4144897460939	1718.05712890625	-900.6654052734377	-407.1361694335939	1551.358642578125	-954.9200439453127	-400.6754150390626	1221.4638671875	-954.223815917969	-258.9329833984376	1510.119262695313	-968.9438476562502	-347.7527465820313	1541.933227539063	-1120.244750976563	-196.6091918945313	1412.0673828125	-1237.88916015625	-163.3571319580078	1447.194702148438	-1226.7900390625	-128.0404357910157	1402.407348632813	-1245.338134765625	-68.96771240234376	1405.8837890625	-1241.546264648438	-66.61553192138673	1349.974609375	-1186.8671875	183.3674926757813	1456.072875976563	-1170.022827148438	202.8726196289063	1410.787719726563	-1231.282348632813	272.9125976562501	1479.253540039063	-1192.814208984375	-320.5440979003907	1548.41845703125	-810.5885009765627	-161.3183898925782	1424.979125976563	-690.7795410156251	-126.1917724609375	1455.873291015625	-699.6060791015626	-93.2993621826172	1408.00244140625	-681.5855712890626	-48.59776687622072	1401.62890625	-685.7874145507814	-52.22954177856447	1350.927734375	-743.0109863281251	207.4638824462891	1475.353515625	-788.4947509765627	215.9196166992188	1431.344970703125	-722.3068237304689	283.1334838867188	1505.625244140625	-772.0501708984377	-203.1448822021485	1062.764282226563	-1081.758178710938	-201.1470947265626	1063.651123046875	-826.4414672851565	-394.5046386718751	1137.912231445313	-952.1135253906252	-398.8306579589845	1106.009399414063	-980.3359985351565	-396.8107910156251	1104.725463867188	-923.5725097656252	-303.3893127441407	823.5563964843752	-1160.482055664063	-276.8232727050782	743.0751953125001	-1155.568969726563	-229.5818023681641	743.9442138671876	-1149.945922851563	-308.7762756347657	692.5744628906251	-1139.046142578125	-320.7070007324219	537.8882446289064	-1116.113159179688	-287.5655822753907	531.6209716796876	-980.567810058594	-280.9701538085938	373.1632385253907	-1066.713989257813	-332.7088012695313	327.6516113281251	-1124.158203125	-293.9228210449219	325.1602783203126	-1098.585693359375	-299.3976745605469	247.6893920898438	-1064.276611328125	-359.8960876464844	111.4271392822266	-1100.607055664063	-328.4346008300782	132.1110534667969	-1010.701538085938	-428.5797424316407	101.5650253295899	-1042.921997070313	-216.3844451904297	57.56025695800783	-1020.833984375	-208.7599334716797	54.64747619628908	-1070.099487304688	-260.9556579589844	38.08230590820313	-1121.683959960938	-301.9736328125001	766.0556640625001	-735.4448852539064	-268.3439941406251	708.9399414062501	-727.8257446289064	-234.4640808105469	707.4694213867189	-731.3096313476564	-299.6927795410157	632.6668090820314	-742.1577758789064	-313.7514038085938	543.0058593750001	-737.5804443359376	-255.8936614990235	527.9184570312501	-861.955017089844	-265.4535827636719	431.708465576172	-730.2659301757814	-343.1481018066407	368.2893066406251	-693.3536376953126	-298.0208435058594	356.9441223144532	-698.9281616210939	-286.1778869628907	303.2440795898438	-716.6408081054689	-356.9656677246094	130.2151794433594	-679.3212890625001	-315.3508300781251	137.811996459961	-765.2908935546876	-419.8370971679689	104.626335144043	-736.1804809570314	-202.2987976074219	52.22111892700197	-741.8397216796876	-201.3733520507813	53.29415893554689	-694.0675659179689	-252.8102416992188	41.74427795410157	-647.0933837890626	
187	0.93	-230.8254699707032	1800.437866210938	-968.308532714844	-381.9842224121094	1724.694580078125	-1040.485595703125	-398.6606750488282	1718.075927734375	-901.0745849609377	-407.211639404297	1551.296752929688	-955.2634887695315	-400.3982238769532	1221.391235351563	-954.3758544921877	-259.0046997070313	1510.1494140625	-969.2156982421877	-347.7683410644532	1541.83544921875	-1120.535522460938	-196.2571868896485	1412.605834960938	-1237.752319335938	-163.0351257324219	1447.920166015625	-1226.779541015625	-127.2863082885742	1403.036987304688	-1245.435913085938	-68.57007598876955	1406.790405273438	-1241.5068359375	-66.43264770507814	1350.688720703125	-1186.93212890625	183.1793365478516	1458.055297851563	-1169.099365234375	203.5696716308594	1412.796020507813	-1230.696411132813	272.9552307128907	1481.284423828125	-1191.84375	-320.6248779296876	1548.453735351563	-810.9665527343752	-160.9245147705078	1425.5166015625	-691.1459960937501	-125.9962234497071	1456.7958984375	-699.9110717773439	-93.16011810302736	1408.693603515625	-681.9627685546876	-48.01731872558595	1402.617919921875	-686.4163208007814	-51.68397521972658	1351.78564453125	-743.4305419921876	207.9158325195313	1476.619873046875	-789.1372680664065	216.1065368652344	1432.988525390625	-723.0606079101564	283.2493591308594	1507.276000976563	-772.9209594726565	-202.9258575439454	1062.720581054688	-1081.936889648438	-200.7589416503907	1063.580322265625	-826.637634277344	-394.2669372558595	1137.862426757813	-952.1977539062502	-398.5615539550782	1105.98095703125	-980.4461059570315	-396.5485839843751	1104.71240234375	-923.6765747070315	-303.1793518066407	823.5479125976565	-1160.601196289063	-276.6269531250001	743.0407104492189	-1155.668334960938	-229.3515625000001	743.9055175781251	-1150.0224609375	-308.5753479003907	692.5435180664064	-1139.108032226563	-320.5075988769532	537.8651733398439	-1116.196411132813	-287.3503723144532	531.6525878906251	-980.577087402344	-280.9485473632813	373.1418457031251	-1066.7099609375	-332.9851074218751	327.6206359863282	-1124.448974609375	-293.8392333984376	325.1000061035157	-1098.6279296875	-299.2718811035157	247.8232116699219	-1064.3037109375	-359.8516235351563	111.4764251708985	-1100.640991210938	-328.4272460937501	132.1271209716797	-1010.689392089844	-428.7123413085939	101.7275161743164	-1042.789916992188	-216.3594512939454	57.54928588867189	-1020.809875488281	-208.7468719482422	54.65236282348634	-1070.109985351563	-261.0932312011719	38.10103607177735	-1121.598388671875	-301.6185913085938	766.1124267578126	-735.5437622070314	-267.9868469238282	708.9929809570314	-727.9450683593751	-234.3174896240235	707.5133056640626	-731.3035278320314	-299.4570617675782	632.7050170898439	-742.2171630859376	-313.5870971679688	543.0759277343751	-737.5994262695314	-255.8076629638672	527.9468994140626	-862.0271606445315	-265.2985839843751	431.7646484375001	-730.2472534179689	-342.9827575683594	368.4284667968751	-693.3433837890626	-297.9187927246094	357.0085754394532	-698.9112548828126	-286.0549926757813	303.2846984863282	-716.6383056640626	-356.9158935546876	130.3028259277344	-679.2669067382814	-315.2277832031251	137.8848266601563	-765.2065429687501	-419.7233886718751	104.7731475830078	-736.2013549804689	-202.3356628417969	52.16781616210939	-741.7632446289064	-201.3862762451172	53.25309371948244	-694.0212402343751	-252.7844848632813	41.73358917236329	-647.0667724609376	
188	0.9350000000000001	-231.0535430908204	1800.371337890625	-968.6271972656252	-382.1506652832032	1724.690795898438	-1040.842651367188	-398.814666748047	1718.053588867188	-901.3905029296877	-407.2574157714845	1551.235473632813	-955.6275634765627	-400.1141662597657	1221.320922851563	-954.516296386719	-258.7615661621094	1510.29443359375	-969.4624023437502	-347.8524780273438	1541.717529296875	-1120.789916992188	-196.1395874023438	1413.115844726563	-1237.968139648438	-162.854721069336	1448.462036132813	-1226.759643554688	-126.76171875	1403.825561523438	-1245.478759765625	-68.03177642822267	1407.656494140625	-1241.35498046875	-65.54556274414064	1351.675659179688	-1186.817993164063	183.4298553466797	1459.699584960938	-1168.337890625	203.1245727539063	1414.650024414063	-1229.76513671875	273.2465820312501	1483.305908203125	-1190.758544921875	-320.5860595703126	1548.530517578125	-811.382507324219	-160.6926422119141	1426.193359375	-691.4436645507814	-125.5155639648438	1457.475219726563	-700.5661010742189	-92.79595184326173	1409.599609375	-682.2587890625001	-47.5947608947754	1403.691162109375	-686.8690185546876	-51.29261016845705	1352.7626953125	-743.6710205078126	207.9413604736329	1478.1142578125	-790.042419433594	216.5913696289063	1434.3828125	-723.8731079101564	283.4367370605469	1508.765991210938	-773.846862792969	-202.5667572021485	1062.640869140625	-1082.1552734375	-200.4503173828126	1063.618286132813	-826.8348388671877	-394.0061340332032	1137.826904296875	-952.3482055664065	-398.3692932128907	1105.987670898438	-980.5540161132815	-396.1892089843751	1104.696411132813	-923.8502197265627	-302.9020996093751	823.5313110351565	-1160.699096679688	-276.2929992675782	743.0236206054689	-1155.816650390625	-229.1186065673829	743.9174804687501	-1150.12158203125	-308.3477478027344	692.5701293945314	-1139.190795898438	-320.3987426757813	537.9232177734376	-1116.287841796875	-287.1638793945313	531.6671142578126	-980.5804443359377	-280.8828735351563	373.0910034179688	-1066.712280273438	-332.6552124023438	327.6741943359376	-1124.192504882813	-293.8256225585938	325.0822753906251	-1098.60986328125	-299.0089111328126	247.8885955810547	-1064.403564453125	-359.8758544921876	111.4986953735352	-1100.611694335938	-328.4002380371094	132.1292114257813	-1010.637451171875	-428.7301635742189	101.7454299926758	-1042.787231445313	-216.3188171386719	57.54540634155275	-1020.788879394531	-208.7220916748047	54.66311645507814	-1070.054077148438	-261.1249389648438	38.08422470092774	-1121.59228515625	-301.0938110351563	766.1574707031251	-735.6407470703126	-267.7539978027344	709.0591430664064	-728.0676879882814	-234.177963256836	707.5512084960939	-731.3229980468751	-299.2875366210938	632.7572021484376	-742.2693481445314	-313.4145507812501	543.1370239257814	-737.6325073242189	-255.6883697509766	527.9998168945314	-862.0820312500002	-265.1100463867188	431.7903442382814	-730.2865600585939	-342.7466735839844	368.5444946289063	-693.3686523437501	-297.8241271972657	357.0279541015626	-698.8497314453126	-285.8605346679688	303.3098144531251	-716.6177368164064	-356.8361816406251	130.3574676513672	-679.2108154296876	-315.0277709960938	137.9480285644532	-765.0916137695314	-419.6160278320314	104.888053894043	-736.2214355468751	-202.3437805175782	52.12154769897462	-741.7687377929689	-201.371322631836	53.20395278930665	-693.9605712890626	-252.8248443603516	41.72999572753907	-647.0963745117189	
